# xmcd
#
# Track frame offsets:
#   150
#   7437
#   19538
#
# Disc length: 3062 seconds
#
# Revision: 0
# Processed by: cddbd v1.5.2PL0 Copyright (c) Steve Scherf et al.
# Submitted via: GXTranscoder 2.0.1939
#
DISCID=1c0bf403
DTITLE=1 - 2
DYEAR=2015
DGENRE=Children's Music
TTITLE0=01
TTITLE1=02
TTITLE2=03
EXTD=3
EXTT0=
EXTT1=
EXTT2=
PLAYORDER=
